<svg xmlns="http://www.w3.org/2000/svg" version="1.1" xmlns:xlink="http://www.w3.org/1999/xlink" xmlns:svgjs="http://svgjs.dev/svgjs" width="2000" height="1500" viewBox="0 0 2000 1500"><rect width="2000" height="1500" fill="#102e44"></rect><g transform="matrix(0.4444444444444444,0,0,0.4444444444444444,555.5556208333335,250)"><svg viewBox="0 0 320 360" data-background-color="#102e44" preserveAspectRatio="xMidYMid meet" height="2250" width="2000" xmlns="http://www.w3.org/2000/svg" xmlns:xlink="http://www.w3.org/1999/xlink"><g id="tight-bounds" transform="matrix(1,0,0,1,0.000023499999997511622,0)"><svg viewBox="0 0 320 360" height="360" width="320"><g><svg></svg></g><g><svg viewBox="0 0 320 360" height="360" width="320"><g><path transform="translate(-74.99272,-51.79039) scale(4.65793,4.65793)" d="M20.6 59.9l0.8 1-0.4-1.3c-0.1-0.6-0.8 0.1-0.4 0.3M21.5 59.3c0.3 0.5 0.6 1 0.6 1.5 0 0.7 0.6 1 1.1 1.2-0.7-0.8-1.1-3-1.7-2.7M59.9 16.9c1.7 0 3.3-0.2 5.1 0.2 4.4 1.1 8.1 3.3 10.6 6.4l7 11.2c0.3 2.8 0.9 5.9 0.8 9.3 0.7 0 0.6-1 1.4-1.2-0.8 2-1.2 4.5-1.4 7.4-0.5-1.6 0-4 0.1-5.3-0.7 1.1-1.1 0.3-1.1-0.2 0.1-0.8-0.3-0.7-0.6-1-1.1-1-1.8-2.1-2.6-3.8 0.5-1.3 0.6-3.2-1-4.2-0.5-0.3-1.1-0.8-1.4-1.6-0.4-1.1-1.1-2.4-0.9-4.1 0.1-0.5-1.5 1.1-2.4 0.4-3.9-2.7-7.8-5.8-12.5-8.4-2.5 0-4.3-0.9-5.2-2-0.8-1-0.2-2.3 1-2.4 0.7 0 1.5-0.2 2.1 0.2 0.1-0.4 0.5-0.9 1-0.9M50 14.6l0.2 0.1c1 0.2 1.5 1.6 2.6 1.1 0 0.7 0.1 1.4-0.1 1.9-0.3 0.8-1.2 0.8-1.9 0.8-6.7-0.4-10.6 2.4-14.7 4.8-1.1 0.7-2.3 1.2-3.2 2.1-4.3 4-9 7.7-10.1 15.1l-0.9 8.2c-0.1 0.9-1.1 1.8-0.9 2.9l0.7 4.9c-0.7-0.7-1.1 0.2-0.9 0.6 0.1 0.3 0.5 1.3 1.1 0.4 0.8 1.5 1.6 4.4 2.7 5.7 3.4 4 7.8 7.6 11.4 11.2 0.9-0.2 1.6-0.2 1.8-0.8 0.3 0.6-0.3 1.2-0.8 1.3 1.6 1 3.4 1.9 5.8 2.1 3.1 0.2 6 0.7 8.7 1.4 1.4-0.4 2.8-0.6 4.3-0.7 0.5 0 0.8-0.8 1.4-1l0.1-1c0.6 0.9 0.5-0.3 0.1-0.9 0.7 0.6 0.9 1.1 1.2 1.5 0-0.3 0.8-1.4 0.8-0.1l0.2-1.3c0.3-0.2 0.4 1.1 0.7 0.2 0.3-0.9 0.9-0.2 1.5-0.5-0.2 0.4-0.1 1.2 0.6 0.7l0.8-0.7c0.5 1.2 1.3 0.7 1.7 0.5 4.4-2.8 8.8-6.1 13-9.4l-0.1 1.3 0.5-1.6c0.5 0.5 0.9 0.1 1.1-0.2 0.6-1 1.4-2 2.7-2.9-1.6 4.3-3.5 7.7-5.9 10.5l-1 1.2c0 0.7-0.2 1.6-1 1.7-0.4 0.1-1.2-0.2-1.8 0.4-0.3 0.4 0.7 1.2-0.1 0.6-0.7-0.5-1.4 0-2.2 0.2-0.6 0.2 0.4 0.8 0.6 1.2 0.2 0.4 0.4 0.8 0.3 1.3l-1.1-1.2c-1.3 0.7-2.1 2-3.2 3-0.5 0.4-0.3 1.1-0.3 1.7-0.7 0-1.5-0.2-1.9 0.2-0.3 0.4-0.2 1-0.2 1.6-1-0.1-1.1-1.6-2-1.3-0.9 0.2-1.9 0.3-2.7 0.8 0.6 1.2-1 0.5-0.8 0.7-1.5-0.9-2.8-1.6-4.4-1-3.4-1.1-7.6-0.6-10.7-0.2 0-0.5 0.1-1-0.1-1.1-0.2 0.5-0.8 0.3-0.7 0.3-1.9-1.3-3.8-2.1-5.8-3.2-1.8 0.2-3.5-0.7-4-1.2-1.4-1.3-3-0.6-4.3-0.9-2.8-0.7-3.8-3.6-4.1-5.6-0.2-1-1-1.4-1.3-1.3-1.3-4.2-3.3-8-4.9-11.9-0.4-1-0.3-2-0.3-3.1 0.5 0.2 1 0.1 0.9-0.6-0.5-3.3-1.7-5.8-3-8.2 0.7-3.4 0.8-7.4 2.4-10.4 1.4-2.7 4-4.1 5.8-6.4 0.6-0.8 0.6-1.9 1.2-2.6 2-2 4-4.1 6.2-5.9 1-0.8 2.2 0 3.7-0.3 0.5-1.8 2.5-3.4 4.4-2.9 0.8 0.2 2.4-1.9 2.9-2.1 0.8-0.3 0.4 0.8 0.4 1.5 1.9-1.5 4.5-2.3 6.9-3.2" fill="#ffffff" fill-rule="nonzero" stroke="none" stroke-width="1" stroke-linecap="butt" stroke-linejoin="miter" stroke-miterlimit="10" stroke-dasharray="" stroke-dashoffset="0" font-family="none" font-weight="none" font-size="none" text-anchor="none" style="mix-blend-mode: normal" data-fill-palette-color="tertiary"></path></g><g transform="matrix(1,0,0,1,64,91.49952233538113)"><svg viewBox="0 0 192 177.00095532923774" height="177.00095532923774" width="192"><g><svg viewBox="0 0 192 177.00095532923774" height="177.00095532923774" width="192"><g transform="matrix(1,0,0,1,0,131.69690763548186)"><svg viewBox="0 0 192 45.30404769375589" height="45.30404769375589" width="192"><g id="textblocktransform"><svg viewBox="0 0 192 45.30404769375589" height="45.30404769375589" width="192" id="textblock"><g><svg viewBox="0 0 192 45.30404769375589" height="45.30404769375589" width="192"><g transform="matrix(1,0,0,1,0,0)"><svg width="192" viewBox="4.25 -37 159.34 37.6" height="45.30404769375589" data-palette-color="#ffffff"><path d="M8.25 0L4.25 0 4.25-37 8.25-37 8.25-13.55 8.45-13.55 12.4-17.95 19.7-25.8 24.55-25.8 15-15.6 25.5 0 20.65 0 12.1-13.15 8.25-9.2 8.25 0ZM34.6 0L30.6 0 30.6-25.8 34.6-25.8 34.6-21.05 34.85-21.05Q35.3-22.3 36.25-23.38 37.2-24.45 38.7-25.13 40.2-25.8 42.3-25.8L42.3-25.8 43.85-25.8 43.85-21.8 41.5-21.8Q39.35-21.8 37.8-21.23 36.25-20.65 35.42-19.7 34.6-18.75 34.6-17.5L34.6-17.5 34.6 0ZM52.95 0L48.95 0 48.95-25.8 52.95-25.8 52.95 0ZM50.95-31.85L50.95-31.85Q49.7-31.85 49.1-32.48 48.5-33.1 48.5-34.1L48.5-34.1 48.5-34.75Q48.5-35.75 49.1-36.38 49.7-37 50.95-37L50.95-37Q52.25-37 52.82-36.38 53.4-35.75 53.4-34.75L53.4-34.75 53.4-34.1Q53.4-33.1 52.82-32.48 52.25-31.85 50.95-31.85ZM69.19 0.6L69.19 0.6Q65.64 0.6 63.19-0.78 60.74-2.15 58.99-4.45L58.99-4.45 61.84-6.75Q63.34-4.9 65.19-3.85 67.04-2.8 69.49-2.8L69.49-2.8Q72.04-2.8 73.47-3.9 74.89-5 74.89-7L74.89-7Q74.89-8.5 73.92-9.6 72.94-10.7 70.39-11.05L70.39-11.05 68.34-11.35Q65.99-11.7 64.09-12.53 62.19-13.35 61.12-14.88 60.04-16.4 60.04-18.8L60.04-18.8Q60.04-22.65 62.67-24.53 65.29-26.4 69.24-26.4L69.24-26.4Q71.34-26.4 72.97-25.9 74.59-25.4 75.89-24.48 77.19-23.55 78.24-22.25L78.24-22.25 75.59-19.85Q74.74-21.05 73.09-22.03 71.44-23 68.94-23L68.94-23Q66.49-23 65.19-21.93 63.89-20.85 63.89-19L63.89-19Q63.89-17.15 65.17-16.28 66.44-15.4 68.84-15L68.84-15 70.84-14.7Q75.14-14.05 76.94-12.23 78.74-10.4 78.74-7.45L78.74-7.45Q78.74-4.95 77.59-3.15 76.44-1.35 74.29-0.38 72.14 0.6 69.19 0.6ZM89.79 0L85.79 0 85.79-37 89.79-37 89.79-21.6 89.99-21.6Q90.94-23.8 92.67-25.1 94.39-26.4 97.29-26.4L97.29-26.4Q101.29-26.4 103.62-23.83 105.94-21.25 105.94-16.55L105.94-16.55 105.94 0 101.94 0 101.94-15.85Q101.94-19.3 100.47-21.05 98.99-22.8 96.09-22.8L96.09-22.8Q94.49-22.8 93.04-22.28 91.59-21.75 90.69-20.65 89.79-19.55 89.79-17.9L89.79-17.9 89.79 0ZM118.19 0L114.19 0 114.19-25.8 118.19-25.8 118.19-21.6 118.39-21.6Q119.34-23.8 121.06-25.1 122.79-26.4 125.69-26.4L125.69-26.4Q129.69-26.4 132.01-23.83 134.34-21.25 134.34-16.55L134.34-16.55 134.34 0 130.34 0 130.34-15.85Q130.34-19.3 128.86-21.05 127.39-22.8 124.49-22.8L124.49-22.8Q122.89-22.8 121.44-22.28 119.99-21.75 119.09-20.65 118.19-19.55 118.19-17.9L118.19-17.9 118.19 0ZM149.19 0.6L149.19 0.6Q145.09 0.6 142.81-1.5 140.54-3.6 140.54-7.2L140.54-7.2Q140.54-9.65 141.74-11.33 142.94-13 145.36-13.88 147.79-14.75 151.54-14.75L151.54-14.75 156.64-14.75 156.64-17.3Q156.64-20.05 155.14-21.5 153.64-22.95 150.54-22.95L150.54-22.95Q148.24-22.95 146.64-21.9 145.04-20.85 143.99-19.1L143.99-19.1 141.59-21.35Q142.64-23.4 144.94-24.9 147.24-26.4 150.74-26.4L150.74-26.4Q155.39-26.4 158.01-24.1 160.64-21.8 160.64-17.7L160.64-17.7 160.64-3.5 163.59-3.5 163.59 0 161.34 0Q159.19 0 158.19-1.1 157.19-2.2 156.94-3.9L156.94-3.9 156.89-4.2 156.64-4.2Q155.84-1.85 153.86-0.63 151.89 0.6 149.19 0.6ZM149.84-2.8L149.84-2.8Q151.84-2.8 153.36-3.43 154.89-4.05 155.76-5.13 156.64-6.2 156.64-7.5L156.64-7.5 156.64-11.75 151.34-11.75Q147.94-11.75 146.34-10.75 144.74-9.75 144.74-7.85L144.74-7.85 144.74-6.8Q144.74-4.9 146.14-3.85 147.54-2.8 149.84-2.8Z" opacity="1" transform="matrix(1,0,0,1,0,0)" fill="#ffffff" class="wordmark-text-0" data-fill-palette-color="primary" id="text-0"></path></svg></g></svg></g></svg></g></svg></g><g transform="matrix(1,0,0,1,40.846744545610186,0)"><svg viewBox="0 0 110.30651090877963 110.30651090877963" height="110.30651090877963" width="110.30651090877963"><g><svg></svg></g><g id="icon-0"><svg viewBox="0 0 110.30651090877963 110.30651090877963" height="110.30651090877963" width="110.30651090877963"><g><path d="M0 55.153c0-30.46 24.693-55.153 55.153-55.153 30.46 0 55.153 24.693 55.154 55.153 0 30.46-24.693 55.153-55.154 55.154-30.46 0-55.153-24.693-55.153-55.154zM55.153 106.221c28.204 0 51.068-22.864 51.068-51.068 0-28.204-22.864-51.068-51.068-51.067-28.204 0-51.068 22.864-51.067 51.067 0 28.204 22.864 51.068 51.067 51.068z" data-fill-palette-color="accent" fill="#b2fcfb" stroke="transparent"></path><ellipse rx="54.60172289984592" ry="54.60172289984592" cx="55.153255454389814" cy="55.153255454389814" fill="#b2fcfb" stroke="transparent" stroke-width="0" fill-opacity="1" data-fill-palette-color="accent"></ellipse></g><g transform="matrix(1,0,0,1,38.28548562887884,23.238068893845227)"><svg viewBox="0 0 33.73553965102195 63.830373121089174" height="63.830373121089174" width="33.73553965102195"><g><svg xmlns="http://www.w3.org/2000/svg" xmlns:xlink="http://www.w3.org/1999/xlink" version="1.1" x="0" y="0" viewBox="122.046 2.5464751618981714 267.909 506.9055248381018" enable-background="new 0 0 512 512" xml:space="preserve" height="63.830373121089174" width="33.73553965102195" class="icon-dxe-0" data-fill-palette-color="quaternary" id="dxe-0"><path d="M359.021 416.956A5.996 5.996 0 0 0 350.775 418.956C337.687 440.424 303.229 454.643 262 455.936V433.296C289.914 432.155 322.397 423.111 336.163 400.53A6 6 0 0 0 325.917 394.284C316.503 409.726 291.791 420.05 262 421.298V403.174C278.289 402.062 296.549 396.375 304.644 383.101A6.001 6.001 0 0 0 294.398 376.853C289.633 384.667 277.253 390.031 262.001 391.161V349.558C333.143 346.103 389.955 294.921 389.955 232.891 389.955 182.134 372.241 157.813 313.55 77.225 298.64 56.753 281.741 33.55 261.562 5.076A6.002 6.002 0 0 0 251.771 5.076C229.947 35.869 211.183 61.477 196.105 82.053 139.216 159.69 122.046 183.121 122.046 232.89 122.046 264.115 136.006 293.46 161.356 315.522 185.191 336.266 216.498 348.262 250.001 349.611V391.16C234.748 390.03 222.368 384.668 217.604 376.853A6 6 0 1 0 207.357 383.099C215.451 396.374 233.711 402.061 250.001 403.173V421.297C220.211 420.049 195.5 409.725 186.084 394.282A6 6 0 0 0 177.838 392.283 6 6 0 0 0 175.839 400.53C189.608 423.11 222.089 432.154 250.002 433.295V455.935C208.773 454.641 174.315 440.421 161.226 418.954A6 6 0 1 0 150.981 425.202C169.218 455.112 212.958 466.783 250.002 467.938V503.452A6 6 0 0 0 262.002 503.452V467.938C299.048 466.784 342.788 455.113 361.023 425.201A6 6 0 0 0 359.021 416.956M250 337.602C185.583 334.757 134.046 288.722 134.046 232.892 134.046 187.05 150.677 164.352 205.784 89.148 219.748 70.091 236.867 46.727 256.664 18.911 274.748 44.336 290.137 65.466 303.848 84.292 362.255 164.489 377.953 186.043 377.953 232.893 377.953 288.356 326.528 334.157 261.999 337.544V299.544C301.476 296.47 332.665 263.387 332.665 223.134 332.665 180.86 298.272 146.467 255.999 146.467 213.725 146.467 179.333 180.86 179.333 223.134 179.333 263.387 210.521 296.47 249.999 299.544V337.602zM191.334 223.133C191.334 187.476 220.343 158.466 256 158.466S320.666 187.475 320.666 223.133C320.666 256.766 294.853 284.473 262 287.512V241.51A19.34 19.34 0 0 0 269.76 236.763 19.33 19.33 0 0 0 275.463 223.001 19.32 19.32 0 0 0 269.762 209.241 19.32 19.32 0 0 0 256 203.537 19.34 19.34 0 0 0 242.238 209.238 19.33 19.33 0 0 0 236.537 223 19.34 19.34 0 0 0 242.239 236.764 19.4 19.4 0 0 0 250 241.51V287.512C217.147 284.473 191.334 256.766 191.334 223.133M248.537 223A7.4 7.4 0 0 1 250.724 217.723C252.133 216.313 254.007 215.536 256 215.536S259.865 216.312 261.276 217.724A7.4 7.4 0 0 1 263.463 222.999 7.4 7.4 0 0 1 261.275 228.277 7.4 7.4 0 0 1 256.002 230.461 7.4 7.4 0 0 1 250.725 228.276 7.4 7.4 0 0 1 248.537 223" fill="#102e44" data-fill-palette-color="quaternary"></path></svg></g></svg></g></svg></g></svg></g><g></g></svg></g></svg></g></svg></g><defs></defs></svg><rect width="320" height="360" fill="none" stroke="none" visibility="hidden"></rect></g></svg></g></svg>